<?xml version="1.0" encoding="UTF-8" standalone="no"?><svg xmlns="http://www.w3.org/2000/svg" xmlns:xlink="http://www.w3.org/1999/xlink" contentStyleType="text/css" height="643px" preserveAspectRatio="none" style="width:818px;height:643px;background:#FFFFFF;" version="1.1" viewBox="0 0 818 643" width="818px" zoomAndPan="magnify"><defs/><g><rect fill="none" height="30.2969" id="_title" style="stroke:none;stroke-width:1.0;" width="283" x="266.5" y="10"/><text fill="#000000" font-family="Calibri" font-size="14" font-weight="bold" lengthAdjust="spacing" textLength="269" x="273.5" y="29.9951">Installing Certificates On-premise</text><rect fill="#FFFFFF" height="33.1328" style="stroke:#181818;stroke-width:1.0;" width="10" x="98" y="289.2578"/><line style="stroke:#181818;stroke-width:0.5;stroke-dasharray:5.0,5.0;" x1="103" x2="103" y1="126.5938" y2="636.0469"/><line style="stroke:#181818;stroke-width:0.5;stroke-dasharray:5.0,5.0;" x1="345.5" x2="345.5" y1="126.5938" y2="636.0469"/><line style="stroke:#181818;stroke-width:0.5;stroke-dasharray:5.0,5.0;" x1="565" x2="565" y1="408.3359" y2="636.0469"/><line style="stroke:#181818;stroke-width:0.5;stroke-dasharray:5.0,5.0;" x1="645" x2="645" y1="363.0391" y2="636.0469"/><line style="stroke:#181818;stroke-width:0.5;stroke-dasharray:5.0,5.0;" x1="752" x2="752" y1="126.5938" y2="636.0469"/><rect fill="#E3E3E3" height="34.2969" rx="2.5" ry="2.5" style="stroke:#181818;stroke-width:0.5;" width="196" x="5" y="91.2969"/><text fill="#000000" font-family="Calibri" font-size="14" lengthAdjust="spacing" textLength="178" x="14" y="113.292">Certification Agency (CA)</text><text fill="#000000" font-family="Calibri" font-size="14" lengthAdjust="spacing" textLength="97" x="294.5" y="121.292">Administrator</text><ellipse cx="346" cy="54.7969" fill="#E3E3E3" rx="8" ry="8" style="stroke:#181818;stroke-width:0.5;"/><path d="M346,62.7969 L346,89.7969 M333,70.7969 L359,70.7969 M346,89.7969 L333,104.7969 M346,89.7969 L359,104.7969 " fill="none" style="stroke:#181818;stroke-width:0.5;"/><rect fill="#E3E3E3" height="34.2969" rx="2.5" ry="2.5" style="stroke:#181818;stroke-width:0.5;" width="119" x="693" y="91.2969"/><text fill="#000000" font-family="Calibri" font-size="14" lengthAdjust="spacing" textLength="101" x="702" y="113.292">ClientMachine</text><rect fill="#FFFFFF" height="33.1328" style="stroke:#181818;stroke-width:1.0;" width="10" x="98" y="289.2578"/><polygon fill="#181818" points="114,157.7266,104,161.7266,114,165.7266" style="stroke:#181818;stroke-width:1.0;"/><line style="stroke:#181818;stroke-width:1.0;" x1="108" x2="345" y1="161.7266" y2="161.7266"/><text fill="#000000" font-family="Calibri" font-size="13" lengthAdjust="spacing" textLength="155" x="122" y="154.6606">download CA certificate</text><polygon fill="#181818" points="740.5,190.8594,750.5,194.8594,740.5,198.8594" style="stroke:#181818;stroke-width:1.0;"/><line style="stroke:#181818;stroke-width:1.0;" x1="346" x2="746.5" y1="194.8594" y2="194.8594"/><text fill="#000000" font-family="Calibri" font-size="13" lengthAdjust="spacing" textLength="132" x="355" y="187.7935">install CA certificate</text><line style="stroke:#181818;stroke-width:1.0;" x1="346" x2="388" y1="243.125" y2="243.125"/><line style="stroke:#181818;stroke-width:1.0;" x1="388" x2="388" y1="243.125" y2="256.125"/><line style="stroke:#181818;stroke-width:1.0;" x1="347" x2="388" y1="256.125" y2="256.125"/><polygon fill="#181818" points="357,252.125,347,256.125,357,260.125" style="stroke:#181818;stroke-width:1.0;"/><text fill="#000000" font-family="Calibri" font-size="13" lengthAdjust="spacing" textLength="86" x="355" y="220.9263">create server</text><text fill="#000000" font-family="Calibri" font-size="13" lengthAdjust="spacing" textLength="66" x="355" y="236.0591">certificate</text><polygon fill="#181818" points="119,285.2578,109,289.2578,119,293.2578" style="stroke:#181818;stroke-width:1.0;"/><line style="stroke:#181818;stroke-width:1.0;" x1="113" x2="345" y1="289.2578" y2="289.2578"/><text fill="#000000" font-family="Calibri" font-size="13" lengthAdjust="spacing" textLength="215" x="127" y="282.1919">request signing server certificate</text><line style="stroke:#181818;stroke-width:1.0;" x1="344" x2="334" y1="322.3906" y2="318.3906"/><line style="stroke:#181818;stroke-width:1.0;" x1="344" x2="334" y1="322.3906" y2="326.3906"/><line style="stroke:#181818;stroke-width:1.0;stroke-dasharray:2.0,2.0;" x1="103" x2="345" y1="322.3906" y2="322.3906"/><text fill="#000000" font-family="Calibri" font-size="13" lengthAdjust="spacing" textLength="113" x="112" y="315.3247">signed certificate</text><polygon fill="#181818" points="595,351.5234,605,355.5234,595,359.5234" style="stroke:#181818;stroke-width:1.0;"/><line style="stroke:#181818;stroke-width:1.0;" x1="346" x2="601" y1="355.5234" y2="355.5234"/><text fill="#000000" font-family="Calibri" font-size="13" lengthAdjust="spacing" textLength="144" x="355" y="348.4575">create closed network</text><rect fill="#E3E3E3" height="34.2969" rx="2.5" ry="2.5" style="stroke:#181818;stroke-width:0.5;" width="76" x="607" y="330.3906"/><text fill="#000000" font-family="Calibri" font-size="14" lengthAdjust="spacing" textLength="58" x="616" y="352.3857">Network</text><polygon fill="#181818" points="521,396.8203,531,400.8203,521,404.8203" style="stroke:#181818;stroke-width:1.0;"/><line style="stroke:#181818;stroke-width:1.0;" x1="346" x2="527" y1="400.8203" y2="400.8203"/><text fill="#000000" font-family="Calibri" font-size="13" lengthAdjust="spacing" textLength="159" x="355" y="393.7544">install in closed network</text><rect fill="#E3E3E3" height="34.2969" rx="2.5" ry="2.5" style="stroke:#181818;stroke-width:0.5;" width="64" x="533" y="375.6875"/><text fill="#000000" font-family="Calibri" font-size="14" lengthAdjust="spacing" textLength="46" x="542" y="397.6826">Exasol</text><polygon fill="#181818" points="553,442.1172,563,446.1172,553,450.1172" style="stroke:#181818;stroke-width:1.0;"/><line style="stroke:#181818;stroke-width:1.0;" x1="346" x2="559" y1="446.1172" y2="446.1172"/><text fill="#000000" font-family="Calibri" font-size="13" lengthAdjust="spacing" textLength="146" x="355" y="439.0513">log into Exasol via ssh</text><polygon fill="#181818" points="553,500.9492,563,504.9492,553,508.9492" style="stroke:#181818;stroke-width:1.0;"/><line style="stroke:#181818;stroke-width:1.0;" x1="346" x2="559" y1="504.9492" y2="504.9492"/><text fill="#000000" font-family="Calibri" font-size="13" lengthAdjust="spacing" textLength="132" x="355" y="497.8833">install CA certificate</text><path d="M570,459.1172 L570,533.1172 L732,533.1172 L732,469.1172 L722,459.1172 L570,459.1172 " fill="#FAFAFA" style="stroke:#181818;stroke-width:0.5;"/><path d="M722,459.1172 L722,469.1172 L732,469.1172 L722,459.1172 " fill="#FAFAFA" style="stroke:#181818;stroke-width:0.5;"/><text fill="#000000" font-family="Calibri" font-size="13" lengthAdjust="spacing" textLength="137" x="578" y="478.1841">required for outgoing</text><text fill="#000000" font-family="Calibri" font-size="13" lengthAdjust="spacing" textLength="95" x="578" y="493.3169">connections to</text><text fill="#000000" font-family="Calibri" font-size="13" lengthAdjust="spacing" textLength="133" x="578" y="508.4497">organization servers</text><text fill="#000000" font-family="Calibri" font-size="13" lengthAdjust="spacing" textLength="131" x="578" y="523.5825">(otherwise optional)</text><polygon fill="#181818" points="553,570.3477,563,574.3477,553,578.3477" style="stroke:#181818;stroke-width:1.0;"/><line style="stroke:#181818;stroke-width:1.0;" x1="346" x2="559" y1="574.3477" y2="574.3477"/><text fill="#000000" font-family="Calibri" font-size="13" lengthAdjust="spacing" textLength="163" x="355" y="567.2817">replace server certificate</text><path d="M570,543.6484 L570,587.6484 L677,587.6484 L677,553.6484 L667,543.6484 L570,543.6484 " fill="#FAFAFA" style="stroke:#181818;stroke-width:0.5;"/><path d="M667,543.6484 L667,553.6484 L677,553.6484 L667,543.6484 " fill="#FAFAFA" style="stroke:#181818;stroke-width:0.5;"/><text fill="#000000" font-family="Calibri" font-size="13" lengthAdjust="spacing" textLength="82" x="578" y="562.7153">for incoming</text><text fill="#000000" font-family="Calibri" font-size="13" lengthAdjust="spacing" textLength="78" x="578" y="577.8481">connections</text><polygon fill="#181818" points="633,614.0469,643,618.0469,633,622.0469" style="stroke:#181818;stroke-width:1.0;"/><line style="stroke:#181818;stroke-width:1.0;" x1="346" x2="639" y1="618.0469" y2="618.0469"/><text fill="#000000" font-family="Calibri" font-size="13" lengthAdjust="spacing" textLength="146" x="355" y="610.981">open network to client</text><!--MD5=[f14b308a8bce790f71148a221748a413]
@startuml
!include ../clean.skin

title "Installing Certificates On-premise"

Participant "Certification Agency (CA)" as CA
Actor Administrator
Participant Exasol
Participant Network
Participant "ClientMachine" as Client

Administrator -> CA : download CA certificate
Administrator -> Client : install CA certificate
 
Administrator -> Administrator : create server\ncertificate
Administrator -> CA : request signing server certificate
activate CA
CA - ->> Administrator : signed certificate
deactivate CA

create Network
Administrator -> Network : create closed network
create Exasol
Administrator -> Exasol : install in closed network
Administrator -> Exasol : log into Exasol via ssh
Administrator -> Exasol : install CA certificate
note right
    required for outgoing
    connections to
    organization servers
    (otherwise optional)
end note
Administrator -> Exasol : replace server certificate
note right
    for incoming
    connections
end note
Administrator -> Network : open network to client

@enduml

@startuml
hide empty methods
hide empty attributes
skinparam style strictuml
skinparam classAttributeIconSize 0
!pragma horizontalLineBetweenDifferentPackageAllowed

skinparam defaultFontName Calibri

skinparam monochrome true

skinparam padding 2

title "Installing Certificates On-premise"

Participant "Certification Agency (CA)" as CA
Actor Administrator
Participant Exasol
Participant Network
Participant "ClientMachine" as Client

Administrator -> CA : download CA certificate
Administrator -> Client : install CA certificate
 
Administrator -> Administrator : create server\ncertificate
Administrator -> CA : request signing server certificate
activate CA
CA - ->> Administrator : signed certificate
deactivate CA

create Network
Administrator -> Network : create closed network
create Exasol
Administrator -> Exasol : install in closed network
Administrator -> Exasol : log into Exasol via ssh
Administrator -> Exasol : install CA certificate
note right
    required for outgoing
    connections to
    organization servers
    (otherwise optional)
end note
Administrator -> Exasol : replace server certificate
note right
    for incoming
    connections
end note
Administrator -> Network : open network to client

@enduml

PlantUML version 1.2022.12(Sun Oct 23 20:12:26 CEST 2022)
(GPL source distribution)
Java Runtime: OpenJDK Runtime Environment
JVM: OpenJDK 64-Bit Server VM
Default Encoding: UTF-8
Language: en
Country: US
--></g></svg>